<?xml version="1.0" encoding="utf-8"?>
<!-- Generator: Adobe Illustrator 26.0.2, SVG Export Plug-In . SVG Version: 6.00 Build 0)  -->
<svg version="1.1" xmlns="http://www.w3.org/2000/svg" xmlns:xlink="http://www.w3.org/1999/xlink" x="0px"
	 y="0px" viewBox="0 0 500 120" style="enable-background:new 0 0 500 120;" xml:space="preserve">
<style type="text/css">
	.st0{clip-path:url(#SVGID_00000181810106805051523150000002785522445694824370_);}
	.st1{fill-rule:evenodd;clip-rule:evenodd;fill:#282B31;}
	.st2{fill:#282B31;}
	.st3{fill:#C4C4C4;filter:url(#Adobe_OpacityMaskFilter);}
	.st4{mask:url(#mask0_00000131361460310107138140000002113239905114979985_);}
	.st5{fill:#35BDF6;}
	.st6{fill:#00DEDE;}
	.st7{fill:#00D3D3;}
	.st8{fill:#3196E0;}
	.st9{fill:#5548FF;}
</style>
<g>
	<defs>
		<rect id="SVGID_1_" x="6.4" y="4.2" width="487.4" height="110.6"/>
	</defs>
	<clipPath id="SVGID_00000046307167573933571450000016053715890310190015_">
		<use xlink:href="#SVGID_1_"  style="overflow:visible;"/>
	</clipPath>
	<g style="clip-path:url(#SVGID_00000046307167573933571450000016053715890310190015_);">
		<path class="st1" d="M466,39.5l14.3,40.1h-9.6l-2.6-7.3h-11.4l-2.6,7.3h-9.6l14.3-40.1H466z M459.9,63.2h5l-2.5-6.9L459.9,63.2z"
			/>
		<path class="st2" d="M484.4,39.5v40.1h9.1V39.5H484.4z"/>
		<path class="st1" d="M362.2,39.5l14.3,40.1h-6.9l-3.1-8.7h-13.2l-3.1,8.7h-6.9l14.3-40.1H362.2z M355.6,64.4h8.6l-4.3-12.1
			L355.6,64.4z"/>
		<path class="st2" d="M381.6,39.5v40.1h6.5V39.5H381.6z"/>
		<path class="st2" d="M395.8,39.5v40.1h6.5V50l18.3,29.6h7.5V39.5h-6.5V69l-18.3-29.6H395.8z"/>
		<path class="st1" d="M326,39.5c4.1,0,7.8,1.1,10.4,3.5c2.7,2.4,3.8,5.8,3.8,9.6c0,3.7-1.1,7.1-3.8,9.6c-1.1,1-2.4,1.8-3.8,2.3
			l8.7,15.2h-7.4l-8-14.1h-6.9l0,14.1h-6.5V39.5h3.2H326z M318.8,59V46h7.1c3.2,0,5,0.8,6,1.7c1,0.9,1.7,2.4,1.7,4.8
			c0,2.4-0.7,3.9-1.7,4.8c-1,1-2.9,1.7-6,1.7H318.8z"/>
		<path class="st1" d="M292.7,39.5c3.4,0,6.3,1.2,8.4,3.4c2.1,2.2,3,5.2,3,8.2c0,2.9-0.8,5.6-2.6,7.8c0.1,0.1,0.2,0.1,0.3,0.2
			c2.7,2.1,4.2,5.1,4.2,8.8c0,3.7-1.5,6.7-4.2,8.8c-2.6,2-5.9,2.8-9.5,2.8h-11.6h-3.2V39.5h3.2H292.7z M292.7,56.3
			c1.8,0,3-0.6,3.7-1.4c0.7-0.8,1.3-2,1.3-3.8c0-1.8-0.5-3-1.3-3.8c-0.7-0.8-1.8-1.4-3.7-1.4h-8.8v10.3H292.7z M283.9,62.8v10.3h8.4
			c2.6,0,4.4-0.6,5.5-1.5c1-0.8,1.6-1.9,1.6-3.7c0-1.8-0.7-2.9-1.6-3.7c-1.1-0.8-2.9-1.5-5.5-1.5H283.9z"/>
		<path class="st1" d="M151.4,39.5h-3.2v40.1h3.2h7.3c5.4,0,10.6-1.3,14.4-4.7c3.9-3.5,6-8.7,6-15.4c0-6.8-2.1-12-6-15.4
			c-3.9-3.4-9-4.6-14.4-4.6H151.4z M154.6,73.1V46h4.1c4.4,0,7.8,1,10.1,3c2.2,1.9,3.8,5.1,3.8,10.5c0,5.4-1.6,8.7-3.8,10.6
			c-2.2,2-5.6,3-10.1,3H154.6z"/>
		<path class="st1" d="M244.5,39.5v40.1h6.5V65.5h7.1c4.3,0,7.9-1.4,10.3-3.9c2.4-2.5,3.3-5.8,3.3-9.1c0-3.2-0.9-6.5-3.3-9.1
			c-2.4-2.6-5.9-3.9-10.3-3.9H244.5z M251,59V46h7.1c3,0,4.6,0.9,5.6,1.9c1,1,1.6,2.6,1.6,4.6c0,2-0.6,3.6-1.6,4.6
			c-0.9,1-2.6,1.9-5.6,1.9H251z"/>
		<path class="st2" d="M185,39.5h23.9V46h-17.5v10.3h16.8v6.5h-16.8v10.3h17.5v6.5H185V39.5z"/>
		<path class="st2" d="M214.7,39.5v40.1h23.9v-6.5h-17.5V62.8H238v-6.5h-16.8V46h17.5v-6.5H214.7z"/>
		<defs>
			<filter id="Adobe_OpacityMaskFilter" filterUnits="userSpaceOnUse" x="6.9" y="4.2" width="95.8" height="110.6">
				<feColorMatrix  type="matrix" values="1 0 0 0 0  0 1 0 0 0  0 0 1 0 0  0 0 0 1 0"/>
			</filter>
		</defs>
		
			<mask maskUnits="userSpaceOnUse" x="6.9" y="4.2" width="95.8" height="110.6" id="mask0_00000131361460310107138140000002113239905114979985_">
			<path class="st3" d="M54.8,4.2l47.9,27.7v55.3l-47.9,27.7L6.9,87.2V31.9L54.8,4.2z"/>
		</mask>
		<g class="st4">
			<path class="st5" d="M102.7,31.9L54.8,4.2L30.6,45.7L102.7,31.9z"/>
			<path class="st6" d="M54.8,4.2L6.9,31.9l23.7,13.8L54.8,4.2z"/>
			<path class="st7" d="M6.9,31.9v55.3l23.7-41.5L6.9,31.9z"/>
			<path class="st8" d="M102.7,87.2l-47.9,27.7l-9.7-27.7l57.6-55.3V87.2z"/>
			<path class="st9" d="M30.6,45.7L6.9,87.2l47.9,27.7L30.6,45.7z"/>
		</g>
	</g>
</g>
</svg>
